<svg xmlns="http://www.w3.org/2000/svg" viewBox="0 0 238 72">
    <rect class="a" x="2.81" y="2.92" width="232.56" height="65.77" fill="#f3ff00"/>
    <rect x="2.81" y="2.92" width="232.56" height="65.77"
        fill-opacity="0"
        stroke="rgb(30,30,30)"
        stroke-width="5"
    />
    <path fill="rgb(30,30,30)" d="M15.85,23.24h6.69a7.74,7.74,0,0,1,5.36,1.85A6.2,6.2,0,0,1,30,30V42.07a6.21,6.21,0,0,1-2.06,4.87,7.74,7.74,0,0,1-5.36,1.84H15.85Zm6.6,22a3.08,3.08,0,0,0,2.26-.81A3.33,3.33,0,0,0,25.53,42V30.07a3.32,3.32,0,0,0-.82-2.47,3.08,3.08,0,0,0-2.26-.81H20.28V45.24Z"/>
    <path fill="rgb(30,30,30)" d="M34.61,23.24H46.86v3.55H39v6.9h6.08v3.54H39v8h8v3.54H34.61Z"/>
    <path fill="rgb(30,30,30)" d="M49.9,40.26h4.43V42A4.43,4.43,0,0,0,55,44.61a2.14,2.14,0,0,0,1.87.93,2.3,2.3,0,0,0,1.84-.78,3.22,3.22,0,0,0,.68-2.18A5.45,5.45,0,0,0,56.8,38l-3-2.18q-3.73-2.68-3.74-6.35a6.41,6.41,0,0,1,1.8-4.63A6.5,6.5,0,0,1,56.76,23a6.38,6.38,0,0,1,4.91,1.92,7.11,7.11,0,0,1,1.78,5V31.4H59V30c0-2.34-.75-3.51-2.26-3.51a2,2,0,0,0-1.67.76,3.12,3.12,0,0,0-.59,2A3.63,3.63,0,0,0,55,31.16a6.87,6.87,0,0,0,1.78,1.75l3,2.14a10.2,10.2,0,0,1,3,3.33,8.15,8.15,0,0,1,1,3.91,6.65,6.65,0,0,1-1.89,4.89,6.81,6.81,0,0,1-5.06,1.9,6.77,6.77,0,0,1-5.06-1.92,6.84,6.84,0,0,1-1.89-5Z"/>
    <path fill="rgb(30,30,30)" d="M72.27,23.24V48.78H67.84V23.24Z"/>
    <path fill="rgb(30,30,30)" d="M76.91,29.89a7.08,7.08,0,0,1,.91-3.6,6.42,6.42,0,0,1,2.55-2.46A7.62,7.62,0,0,1,84.08,23,6.93,6.93,0,0,1,89.2,24.9a6.75,6.75,0,0,1,2,5V31.4H86.73V30a4.2,4.2,0,0,0-.7-2.59,2.27,2.27,0,0,0-1.91-.92,2.48,2.48,0,0,0-2,.92A4.07,4.07,0,0,0,81.34,30V42a4,4,0,0,0,.76,2.56,2.53,2.53,0,0,0,2.07.95,2.61,2.61,0,0,0,2-.76A3.37,3.37,0,0,0,87,42.69v-4.9H83.6V34.24h7.82V48.78H88.29l-.52-1.25h-.26a4.84,4.84,0,0,1-3.78,1.55,6.94,6.94,0,0,1-3.43-.87,6.41,6.41,0,0,1-2.48-2.45,7.23,7.23,0,0,1-.91-3.62Z"/>
    <path fill="rgb(30,30,30)" d="M110.44,23.24V48.78h-4l-6.12-14.87V48.78H95.94V23.24h4L106,38V23.24Z"/>
    <path fill="rgb(30,30,30)" d="M163.69,30a4.34,4.34,0,0,0-.67-2.59,2.22,2.22,0,0,0-1.89-.92,2.35,2.35,0,0,0-2,.92,4.13,4.13,0,0,0-.72,2.59V42a4.08,4.08,0,0,0,.72,2.58,2.33,2.33,0,0,0,2,.93,2.37,2.37,0,0,0,2-.93,4.08,4.08,0,0,0,.71-2.58V40.26h4.43v1.88a6.68,6.68,0,0,1-2,5,7.79,7.79,0,0,1-10.29,0,6.69,6.69,0,0,1-2-5V29.89a6.71,6.71,0,0,1,2-5A7,7,0,0,1,161.13,23a6.62,6.62,0,0,1,7,6.94V31.4h-4.43Z"/>
    <path fill="rgb(30,30,30)" d="M171.42,29.89a6.93,6.93,0,0,1,.94-3.58A6.43,6.43,0,0,1,175,23.83a8.93,8.93,0,0,1,7.73,0,6.4,6.4,0,0,1,2.62,2.48,6.84,6.84,0,0,1,.94,3.58V42.14a6.86,6.86,0,0,1-.94,3.58,6.38,6.38,0,0,1-2.62,2.47,8.84,8.84,0,0,1-7.73,0,6.4,6.4,0,0,1-2.63-2.47,7,7,0,0,1-.94-3.58Zm5.24,14.7a3,3,0,0,0,4.38,0,3.78,3.78,0,0,0,.81-2.56V30a3.81,3.81,0,0,0-.81-2.57,3,3,0,0,0-4.38,0,3.81,3.81,0,0,0-.81,2.57V42A3.78,3.78,0,0,0,176.66,44.59Z"/>
    <path fill="rgb(30,30,30)" d="M190.92,23.24h6.69A7.77,7.77,0,0,1,203,25.09,6.23,6.23,0,0,1,205,30V42.07A6.24,6.24,0,0,1,203,46.94a7.76,7.76,0,0,1-5.37,1.84h-6.69Zm6.61,22a3.11,3.11,0,0,0,2.26-.81,3.37,3.37,0,0,0,.82-2.47V30.07a3.36,3.36,0,0,0-.82-2.47,3.11,3.11,0,0,0-2.26-.81h-2.17V45.24Z"/>
    <path fill="rgb(30,30,30)" d="M209.69,23.24h12.24v3.55h-7.81v6.9h6.08v3.54h-6.08v8h8v3.54H209.69Z"/>
    <rect fill="rgb(30,30,30)" x="123.12" y="26.04" width="4.98" height="4.99"/>
    <rect fill="rgb(30,30,30)" x="138.06" y="26.04" width="4.98" height="4.99"/>
    <rect fill="rgb(30,30,30)" x="123.12" y="41" width="4.98" height="4.99"/>
    <rect fill="rgb(30,30,30)" x="138.06" y="41" width="4.98" height="4.99"/>

</svg>